<?xml version="1.0" encoding="utf-8"?>
<!-- Generator: Adobe Illustrator 27.4.1, SVG Export Plug-In . SVG Version: 6.00 Build 0)  -->
<svg version="1.1" id="svg2" xmlns:inkscape="http://www.inkscape.org/namespaces/inkscape"
	 xmlns="http://www.w3.org/2000/svg" xmlns:xlink="http://www.w3.org/1999/xlink" x="0px" y="0px" viewBox="0 0 458.5 213.1"
	 style="enable-background:new 0 0 458.5 213.1;" xml:space="preserve">
<style type="text/css">
	.st0{fill:url(#SVGID_1_);}
	.st1{fill:url(#SVGID_00000177464272182779042020000006331294047022597508_);}
	.st2{fill:url(#SVGID_00000161632835508329603050000009657905054844626367_);}
	.st3{fill:url(#SVGID_00000056386068570111809110000015565863289692552861_);}
	.st4{fill:url(#SVGID_00000107553369024084598620000005854642604673287101_);}
	.st5{fill:url(#SVGID_00000049934420004309497190000015445537984892196252_);}
	.st6{fill:url(#SVGID_00000048462923208627201840000002378538860726858401_);}
	.st7{fill:url(#SVGID_00000087372780963543003980000014537552426801742262_);}
	.st8{fill:url(#SVGID_00000158027790395458113150000002734391325885510807_);}
	.st9{fill:url(#SVGID_00000152952684714720507860000001271099576202041769_);}
	.st10{fill:url(#SVGID_00000031208277095322986080000002252924538628957867_);}
	.st11{fill:url(#SVGID_00000108993837872756413560000008927727204000585607_);}
	.st12{fill:url(#SVGID_00000155836193935820466780000011085184201980696991_);}
	.st13{fill:url(#SVGID_00000029019610087276331030000000174046637751348612_);}
	.st14{fill:url(#SVGID_00000086673549410411371490000014895420257734355643_);}
	.st15{fill:url(#SVGID_00000069358848245034014330000008868833535818615463_);}
	.st16{fill:url(#SVGID_00000035524303429825149700000001467994989340785067_);}
	.st17{fill:url(#SVGID_00000159442856641407471960000014017080581949369256_);}
	.st18{fill:url(#SVGID_00000025414475994918085300000002010519871604136878_);}
	.st19{fill:url(#SVGID_00000065046881170806754680000011271716389425842851_);}
	.st20{fill:#FFFFFF;}
</style>
<g id="_x39_6ba6cd2-d6cd-43bc-b422-fa12f40eda4e" inkscape:groupmode="layer" inkscape:label="Layer 1">
	<linearGradient id="SVGID_1_" gradientUnits="userSpaceOnUse" x1="54.5923" y1="106.6684" x2="56.2798" y2="106.6684">
		<stop  offset="0" style="stop-color:#5B909D"/>
		<stop  offset="1" style="stop-color:#9BC53D"/>
	</linearGradient>
	<path class="st0" d="M54.6,106.9h1.1h0.6v-0.6h-1.1h-0.6V106.9"/>
	
		<linearGradient id="SVGID_00000029755730482835864810000003367953972585029556_" gradientUnits="userSpaceOnUse" x1="56.2798" y1="106.1059" x2="57.9673" y2="106.1059">
		<stop  offset="0" style="stop-color:#5B909D"/>
		<stop  offset="1" style="stop-color:#9BC53D"/>
	</linearGradient>
	<path style="fill:url(#SVGID_00000029755730482835864810000003367953972585029556_);" d="M56.3,106.4h1.1H58v-0.6h-1.1h-0.6V106.4"
		/>
	
		<linearGradient id="SVGID_00000062896091453606036370000000230757382539878799_" gradientUnits="userSpaceOnUse" x1="77.6548" y1="94.2934" x2="78.7798" y2="94.2934">
		<stop  offset="0" style="stop-color:#5B909D"/>
		<stop  offset="1" style="stop-color:#9BC53D"/>
	</linearGradient>
	<path style="fill:url(#SVGID_00000062896091453606036370000000230757382539878799_);" d="M77.7,94.6h1.1V94h-1.1V94.6"/>
	
		<linearGradient id="SVGID_00000111872279821500326420000013174944749311578524_" gradientUnits="userSpaceOnUse" x1="76.5298" y1="94.8559" x2="77.6548" y2="94.8559">
		<stop  offset="0" style="stop-color:#5B909D"/>
		<stop  offset="1" style="stop-color:#9BC53D"/>
	</linearGradient>
	<path style="fill:url(#SVGID_00000111872279821500326420000013174944749311578524_);" d="M76.5,95.1h1.1v-0.6h-1.1V95.1"/>
	
		<linearGradient id="SVGID_00000183958465310944969620000005970088691424030372_" gradientUnits="userSpaceOnUse" x1="79.3423" y1="93.7309" x2="80.4673" y2="93.7309">
		<stop  offset="0" style="stop-color:#5B909D"/>
		<stop  offset="1" style="stop-color:#9BC53D"/>
	</linearGradient>
	<path style="fill:url(#SVGID_00000183958465310944969620000005970088691424030372_);" d="M79.3,94h1.1v-0.6h-1.1V94"/>
	
		<linearGradient id="SVGID_00000052825258317691298060000010596642098777383870_" gradientUnits="userSpaceOnUse" x1="370.1548" y1="84.7309" x2="371.2798" y2="84.7309">
		<stop  offset="0" style="stop-color:#5B909D"/>
		<stop  offset="1" style="stop-color:#9BC53D"/>
	</linearGradient>
	<path style="fill:url(#SVGID_00000052825258317691298060000010596642098777383870_);" d="M370.2,85h1.1v-0.6h-1.1V85"/>
	
		<linearGradient id="SVGID_00000047017644227898271890000011717256657571464075_" gradientUnits="userSpaceOnUse" x1="103.5298" y1="80.2309" x2="104.6548" y2="80.2309">
		<stop  offset="0" style="stop-color:#5B909D"/>
		<stop  offset="1" style="stop-color:#9BC53D"/>
	</linearGradient>
	<path style="fill:url(#SVGID_00000047017644227898271890000011717256657571464075_);" d="M103.5,80.5h1.1v-0.6h-1.1V80.5"/>
	
		<linearGradient id="SVGID_00000047748543747324238200000001078334430175628979_" gradientUnits="userSpaceOnUse" x1="104.6548" y1="79.6684" x2="106.3423" y2="79.6684">
		<stop  offset="0" style="stop-color:#5B909D"/>
		<stop  offset="1" style="stop-color:#9BC53D"/>
	</linearGradient>
	<path style="fill:url(#SVGID_00000047748543747324238200000001078334430175628979_);" d="M104.7,79.9h1.1h0.6v-0.6h-1.1h-0.6V79.9"
		/>
	
		<linearGradient id="SVGID_00000180336845614817652920000014393525463191057046_" gradientUnits="userSpaceOnUse" x1="106.3423" y1="79.1059" x2="107.4673" y2="79.1059">
		<stop  offset="0" style="stop-color:#5B909D"/>
		<stop  offset="1" style="stop-color:#9BC53D"/>
	</linearGradient>
	<path style="fill:url(#SVGID_00000180336845614817652920000014393525463191057046_);" d="M106.3,79.4h1.1v-0.6h-1.1V79.4"/>
	
		<linearGradient id="SVGID_00000036942014897907659670000016995118885279834507_" gradientUnits="userSpaceOnUse" x1="77.0923" y1="70.6684" x2="78.2173" y2="70.6684">
		<stop  offset="0" style="stop-color:#5B909D"/>
		<stop  offset="1" style="stop-color:#9BC53D"/>
	</linearGradient>
	<path style="fill:url(#SVGID_00000036942014897907659670000016995118885279834507_);" d="M77.1,70.9h1.1v-0.6h-1.1V70.9"/>
	
		<linearGradient id="SVGID_00000068667739435278003510000009710673381182116995_" gradientUnits="userSpaceOnUse" x1="78.7798" y1="70.1059" x2="79.9048" y2="70.1059">
		<stop  offset="0" style="stop-color:#5B909D"/>
		<stop  offset="1" style="stop-color:#9BC53D"/>
	</linearGradient>
	<path style="fill:url(#SVGID_00000068667739435278003510000009710673381182116995_);" d="M78.8,70.4h1.1v-0.6h-1.1V70.4"/>
	
		<linearGradient id="SVGID_00000026885632341948688580000010255091377199441062_" gradientUnits="userSpaceOnUse" x1="390.4048" y1="69.5434" x2="391.5298" y2="69.5434">
		<stop  offset="0" style="stop-color:#5B909D"/>
		<stop  offset="1" style="stop-color:#9BC53D"/>
	</linearGradient>
	<path style="fill:url(#SVGID_00000026885632341948688580000010255091377199441062_);" d="M390.4,69.8h1.1v-0.6h-1.1V69.8"/>
	
		<linearGradient id="SVGID_00000146473612943793393660000018434042350127211654_" gradientUnits="userSpaceOnUse" x1="79.9048" y1="69.5434" x2="81.0298" y2="69.5434">
		<stop  offset="0" style="stop-color:#5B909D"/>
		<stop  offset="1" style="stop-color:#9BC53D"/>
	</linearGradient>
	<path style="fill:url(#SVGID_00000146473612943793393660000018434042350127211654_);" d="M79.9,69.8H81v-0.6h-1.1V69.8"/>
	
		<linearGradient id="SVGID_00000176024858357738025470000014014779879646871465_" gradientUnits="userSpaceOnUse" x1="391.5298" y1="68.9809" x2="392.6548" y2="68.9809">
		<stop  offset="0" style="stop-color:#5B909D"/>
		<stop  offset="1" style="stop-color:#9BC53D"/>
	</linearGradient>
	<path style="fill:url(#SVGID_00000176024858357738025470000014014779879646871465_);" d="M391.5,69.3h1.1v-0.6h-1.1V69.3"/>
	
		<linearGradient id="SVGID_00000092430967691324242580000009083425428386525319_" gradientUnits="userSpaceOnUse" x1="81.0298" y1="68.9809" x2="82.7173" y2="68.9809">
		<stop  offset="0" style="stop-color:#5B909D"/>
		<stop  offset="1" style="stop-color:#9BC53D"/>
	</linearGradient>
	<path style="fill:url(#SVGID_00000092430967691324242580000009083425428386525319_);" d="M81,69.3h1.1h0.6v-0.6h-1.1H81V69.3"/>
	
		<linearGradient id="SVGID_00000075871416654877966050000009301535975912135333_" gradientUnits="userSpaceOnUse" x1="402.7798" y1="58.2934" x2="403.9048" y2="58.2934">
		<stop  offset="0" style="stop-color:#5B909D"/>
		<stop  offset="1" style="stop-color:#9BC53D"/>
	</linearGradient>
	<path style="fill:url(#SVGID_00000075871416654877966050000009301535975912135333_);" d="M402.8,58.6h1.1V58h-1.1V58.6"/>
	
		<linearGradient id="SVGID_00000029740634341792155770000016401864055926361224_" gradientUnits="userSpaceOnUse" x1="57.686" y1="97.703" x2="370.1597" y2="97.703">
		<stop  offset="0" style="stop-color:#5B909D"/>
		<stop  offset="1" style="stop-color:#9BC53D"/>
	</linearGradient>
	<path style="fill:url(#SVGID_00000029740634341792155770000016401864055926361224_);" d="M266.7,120.7l1.4,0.2l14.1,0.1l5.9-0.8
		c11.3-1.6,23.2-5.1,36.6-10.7l6.5-2.7l10.1-5.1c5.6-2.8,14.4-7.6,19.5-10.7l9.4-5.6l-0.4-0.4l-7.3,3.1
		c-14.6,6.3-31.5,12.3-43.1,15.1l-7.7,1.9l-11.6,1.4l-14.6-0.7l-5.5-1.2c-3-0.6-8.3-2.1-11.8-3.3l-6.4-2.2l-38.8-16.3l-6.8-2.3
		c-20.6-6.9-36.8-7.9-61.9-3.8l-8.4,1.4L134.7,81c-6.2,1.5-15.8,4.2-21.4,5.9L103.2,90l-39.9,13.7l-5.6,2.2l2.8-0.5l11.6-3.1
		c19.6-5.3,44.3-10.7,61.8-13.4l8.2-1.3l24.2-0.1l12.9,2.6l14.8,5l28.5,11.9l21.2,8.4l6.6,1.9c3.6,1,8.5,2.2,10.8,2.5
		C263.4,120.2,265.9,120.5,266.7,120.7"/>
	
		<linearGradient id="SVGID_00000116205984041815003180000015570731320736255661_" gradientUnits="userSpaceOnUse" x1="80.6822" y1="75.4496" x2="390.4829" y2="75.4496">
		<stop  offset="0" style="stop-color:#5B909D"/>
		<stop  offset="1" style="stop-color:#9BC53D"/>
	</linearGradient>
	<path style="fill:url(#SVGID_00000116205984041815003180000015570731320736255661_);" d="M301.2,97l4.5,0.8l17,0.1l10.6-1.8
		l6.3-1.9c12.4-3.7,26.3-10,41.7-18.7l9.2-5.2l-0.5-0.5l-7.6,3.1c-8.9,3.6-16.8,6.1-25.1,8l-6,1.3l-13.8,1.3l-14.2-1.3l-6.3-1.6
		c-3.4-0.9-8.8-2.5-11.9-3.7l-5.6-2.1l-9.8-4.5c-17.4-8-24.6-11-31-13.1l-6.2-2l-13-2.2l-17,0l-5.1,0.6
		c-34.1,3.8-80.7,16.7-122.6,33.7l-8.4,3.4l-3,1.2c-1.6,0.6-2.9,1.3-2.7,1.4l0.2,0.2l8.6-2.8c40.8-13.5,82.1-22.4,111.3-24l6.5-0.4
		L214,67c15.1,1.4,21.6,3.6,50.7,16.9C282.9,92.2,291.5,95.3,301.2,97"/>
	
		<linearGradient id="SVGID_00000088837715880015074320000001155807494520430497_" gradientUnits="userSpaceOnUse" x1="107.468" y1="52.6065" x2="403.0611" y2="52.6065">
		<stop  offset="0" style="stop-color:#5B909D"/>
		<stop  offset="1" style="stop-color:#9BC53D"/>
	</linearGradient>
	<path style="fill:url(#SVGID_00000088837715880015074320000001155807494520430497_);" d="M107.7,78.4l-0.2,0.2
		c-0.1,0.1,0,0.2,0.3,0.2h0.6l15.9-5.6l33.8-10.7l11-3.1c34.3-9.7,65.3-16.1,84.9-17.7l7.9-0.6l5.1,0.4c10.4,0.8,18.9,2.9,28.1,6.9
		l4.5,2L327.1,65l5.7,2.4c3.2,1.3,7.6,2.9,9.8,3.5l4.1,1.1l10.8,1.3l10.2-1.2l5.5-1.4c6.5-1.7,15.6-5.2,23.8-9.2l5.9-2.9l-0.6,0
		c-0.3,0-2,0.4-3.7,0.8c-1.7,0.5-5.5,1.2-8.4,1.7l-5.3,0.8l-7.4,0l-4.7-0.8c-2.6-0.5-6.4-1.4-8.4-2l-3.7-1.2l-14.6-7.1L324,38.3
		l-4.6-2.3c-6.3-3.2-13.6-5.9-19.1-7.2l-4.6-1.1l-13.5-1.3l-7.4,0.7c-14.3,1.3-29.8,4.4-52.4,10.5l-11.3,3.1l-14.6,4.5l-12.1,4
		c-21.7,7.1-41.5,14.5-66.4,24.9L107.7,78.4"/>
	
		<linearGradient id="SVGID_00000036238507572516299030000001180061972005687440_" gradientUnits="userSpaceOnUse" x1="82.7099" y1="34.3498" x2="396.6508" y2="34.3498">
		<stop  offset="0" style="stop-color:#5B909D"/>
		<stop  offset="1" style="stop-color:#9BC53D"/>
	</linearGradient>
	<path style="fill:url(#SVGID_00000036238507572516299030000001180061972005687440_);" d="M83,68.2l-0.2,0.2c-0.1,0.1,0,0.2,0.2,0.2
		h0.5l12.4-4.2c20.4-6.8,48.8-15.6,73.7-22.8l11.8-3.4l17.7-4.9c9.7-2.7,27.1-7.2,38.6-10.1l20.8-5.3l19.6-3.9l10.1-1.5l16.3,0.1
		l11.2,2l15.2,5l41.6,20.4l23.6,10.5l0.4-0.4l-5.5-5c-14.6-13.2-29.3-24.9-39.9-31.9l-5.7-3.7l-11.6-5.5l-10.7-2.8L310,0l-6.6,0.6
		c-8,0.8-13.7,1.7-23.8,4L272,6.3L258.2,10c-16.4,4.4-42.3,12-63.3,18.6l-15.2,4.8l-22.5,7.4l-16,5.6c-16.6,5.8-34.4,12.4-49.5,18.4
		L83,68.2"/>
</g>
<g>
	<path class="st20" d="M0,213.1v-65h31.6c10.5,0,15.8,5.3,15.8,15.8v10.7c0,7.8-2.9,12.7-8.8,14.7l10.6,20.9l-1.6,2.8H36.1
		l-11.5-22.6h-11v22.6H0z M13.6,178.3h17.5c1.9,0,2.8-0.9,2.8-2.8v-12.2c0-1.9-0.9-2.8-2.8-2.8H13.6V178.3z"/>
	<path class="st20" d="M59.3,197.8v-19.2c0-10.2,5.1-15.3,15.3-15.3h13.2c10.2,0,15.3,5.1,15.3,15.3v19.2c0,10.2-5.1,15.3-15.3,15.3
		H74.6C64.4,213.1,59.3,208,59.3,197.8z M72.3,198.8c0,2,1,3,3,3H87c2,0,3-1,3-3v-21.1c0-2-1-3-3-3H75.3c-2,0-3,1-3,3V198.8z"/>
	<path class="st20" d="M115.8,213.1v-69.7h13v20h14.5c10.2,0,15.3,5.1,15.3,15.3v19.2c0,10.2-5.1,15.3-15.3,15.3H115.8z
		 M128.8,201.8h13.7c2,0,3-1,3-3v-21.1c0-2-1-3-3-3h-13.7V201.8z"/>
	<path class="st20" d="M170.6,197.8v-19.2c0-10.2,5.1-15.3,15.3-15.3H199c10.2,0,15.3,5.1,15.3,15.3v19.2c0,10.2-5.1,15.3-15.3,15.3
		h-13.2C175.7,213.1,170.6,208,170.6,197.8z M183.6,198.8c0,2,1,3,3,3h11.7c2,0,3-1,3-3v-21.1c0-2-1-3-3-3h-11.7c-2,0-3,1-3,3V198.8
		z"/>
	<path class="st20" d="M221.1,150.7l1.9-2.5h11.1l10.5,52.7h1l11.2-46.5h13.4l11.2,46.5h1l10.5-52.7h11.1l1.9,2.5l-12.7,62.4h-21.6
		l-8.1-34.4l-8.1,34.4h-21.6L221.1,150.7z"/>
	<path class="st20" d="M325,213.1c-10.2,0-15.3-5-15.3-15s5.1-15,15.3-15h13v-5.5c0-2-1-3-3-3h-20v-7.1l5.6-4.2h15.1
		c10.2,0,15.3,5.1,15.3,15.3v34.5H325z M322.7,198.8c0,2,1,3,3,3H338v-8.7h-12.2c-2,0-3,1-3,3V198.8z"/>
	<path class="st20" d="M359.1,165.4l1.3-2h11.2l11.5,38.4h0.9l11.5-38.4h11.2l1.3,2l-15,47.7h-19L359.1,165.4z"/>
	<path class="st20" d="M415.8,197.8v-19.2c0-10.2,5.1-15.3,15.3-15.3h12.2c10.2,0,15.3,5.1,15.3,15.3V193h-29.8v5.7c0,2,1,3,3,3
		h24.9v7.1l-5.6,4.2h-20C420.8,213.1,415.8,208,415.8,197.8z M428.7,183.1h16.8v-5.4c0-2-1-3-3-3h-10.7c-2,0-3,1-3,3V183.1z"/>
</g>
</svg>
